<?xml version="1.0" encoding="UTF-8"?>
<svg version="1.1" xmlns="http://www.w3.org/2000/svg" width="389" height="364">
<path d="M0 0 C128.37 0 256.74 0 389 0 C389 120.12 389 240.24 389 364 C260.63 364 132.26 364 0 364 C0 243.88 0 123.76 0 0 Z " fill="#07163F" transform="translate(0,0)"/>
<path d="M0 0 C128.37 0 256.74 0 389 0 C389 120.12 389 240.24 389 364 C260.63 364 132.26 364 0 364 C0 243.88 0 123.76 0 0 Z M94 27 C94 27.66 94 28.32 94 29 C92 30 90 31 88 32 C87.14747365 33.4875715 86.36617014 35.01642854 85.625 36.5625 C83.07687832 41.86050079 83.07687832 41.86050079 81.92578125 43.94921875 C76.140133 54.49144738 74.62911105 64.76910906 74.5625 76.625 C74.55250977 77.66132568 74.54251953 78.69765137 74.53222656 79.76538086 C74.61451427 87.19537327 75.91594647 93.87849135 78 101 C77.39752441 100.96334229 76.79504883 100.92668457 76.17431641 100.88891602 C61.47131411 100.11735023 50.26200347 101.50973114 37 108 C37 108.66 37 109.32 37 110 C36.34 110.185625 35.68 110.37125 35 110.5625 C23.7999079 115.9292108 16.32042843 126.75198804 12 138 C11.60554687 138.94230469 11.21109375 139.88460937 10.8046875 140.85546875 C5.61188322 154.89056564 6.27590712 171.26615215 12 185 C12.28875 185.75667969 12.5775 186.51335937 12.875 187.29296875 C13.81405977 189.59450363 14.87252902 191.78430545 16 194 C16.53109375 195.05832031 17.0621875 196.11664063 17.609375 197.20703125 C22.45527557 206.44690988 28.65991295 213.63816455 36 221 C36.55042969 221.61488281 37.10085937 222.22976562 37.66796875 222.86328125 C39.08848191 224.32456824 39.08848191 224.32456824 42 224 C42.33 224.99 42.66 225.98 43 227 C45.27398134 228.55399841 45.27398134 228.55399841 48.0625 229.9375 C49.06667969 230.45828125 50.07085937 230.9790625 51.10546875 231.515625 C52.53826172 232.25039063 52.53826172 232.25039063 54 233 C54.67675781 233.38671875 55.35351562 233.7734375 56.05078125 234.171875 C64.59670249 238.92977548 74.32586909 240.49190496 84 240 C81.56539037 244.32819489 79.04989508 248.5172026 76.24609375 252.6171875 C71.30730972 262.06125727 71.28076756 271.59466616 71.25 282 C71.24347412 283.24472076 71.24347412 283.24472076 71.23681641 284.5145874 C71.24448604 297.70924139 72.64072336 307.41535286 81 318 C81.69222656 319.02867187 82.38445312 320.05734375 83.09765625 321.1171875 C84.96023383 323.8499554 86.92820852 326.42380859 89 329 C89.88365234 330.16402344 89.88365234 330.16402344 90.78515625 331.3515625 C98.85146742 341.31885146 109.93257786 347.21298785 122 351 C122.8559375 351.34933594 123.711875 351.69867188 124.59375 352.05859375 C128.02052151 353.39926247 131.36277109 353.7463739 135 354 C136.48306641 354.11601563 136.48306641 354.11601563 137.99609375 354.234375 C155.01335122 354.94260768 169.48180699 348.43707553 184.01953125 340.3125 C189.34125993 337.96898645 195.66033894 337.98052452 201.2265625 339.6796875 C202.84182706 340.40140145 204.42437087 341.19542342 206 342 C206.99 342 207.98 342 209 342 C209 342.66 209 343.32 209 344 C213.3447843 345.90084313 217.70471864 347.67351204 222.15625 349.30859375 C223.66180528 349.87317698 225.14707569 350.49160387 226.625 351.125 C232.22712965 353.1889425 237.92486753 353.16060078 243.8125 353.125 C244.61494141 353.12161621 245.41738281 353.11823242 246.24414062 353.11474609 C257.86980884 353.01305697 268.76588327 350.91254878 280 348 C280 347.34 280 346.68 280 346 C280.639375 345.896875 281.27875 345.79375 281.9375 345.6875 C282.9584375 345.3471875 282.9584375 345.3471875 284 345 C284.33 344.01 284.66 343.02 285 342 C286.66788498 341.56634991 288.3368207 341.1361894 290.01171875 340.73046875 C293.60206722 339.41142128 296.46921375 336.83078827 299 334 C299 333.34 299 332.68 299 332 C299.66 332 300.32 332 301 332 C301.0825 331.4225 301.165 330.845 301.25 330.25 C302 328 302 328 304 326.0625 C306.29919283 323.69145739 306.64136887 322.22768018 307 319 C307.66 319 308.32 319 309 319 C309.26554687 318.26394531 309.53109375 317.52789062 309.8046875 316.76953125 C310.15789062 315.79371094 310.51109375 314.81789063 310.875 313.8125 C311.22304688 312.84957031 311.57109375 311.88664062 311.9296875 310.89453125 C314.76017131 303.23982869 314.76017131 303.23982869 316 302 C319.04082457 283.41718317 318.08219795 261.50223544 307.05078125 245.62109375 C306 244 306 244 305 241 C305.74765625 241.02320313 306.4953125 241.04640625 307.265625 241.0703125 C308.25046875 241.08835938 309.2353125 241.10640625 310.25 241.125 C311.22453125 241.14820313 312.1990625 241.17140625 313.203125 241.1953125 C316.12265515 240.9914347 317.43821376 240.30015467 320 239 C321.64548828 238.7834375 321.64548828 238.7834375 323.32421875 238.5625 C327.29202143 237.95531234 330.20988874 236.74468717 333.8125 235 C334.93269531 234.46375 336.05289062 233.9275 337.20703125 233.375 C338.80672496 232.58745848 340.40519804 231.79740098 342 231 C342 230.34 342 229.68 342 229 C342.70125 228.7525 343.4025 228.505 344.125 228.25 C347.39514548 226.82819762 350.141122 225.12753712 353 223 C353 222.34 353 221.68 353 221 C353.66 221 354.32 221 355 221 C355.33 220.34 355.66 219.68 356 219 C356.61875 218.71125 357.2375 218.4225 357.875 218.125 C362.10120222 215.88759882 363.31775066 212.25510128 365 208 C368.43794579 201.2810271 368.43794579 201.2810271 371 200 C371.90742792 198.22193563 371.90742792 198.22193563 372.625 196.125 C373.01558594 195.07699219 373.01558594 195.07699219 373.4140625 194.0078125 C374.14007172 191.86861468 374.14007172 191.86861468 374 189 C374.66 189 375.32 189 376 189 C379.73035347 180.23837146 380.19255613 171.22720157 380.25 161.8125 C380.25918457 160.98161865 380.26836914 160.1507373 380.27783203 159.29467773 C380.20203743 144.00387575 374.59414518 131.00862661 364 120 C354.87260542 111.08957994 341.1591443 101.83824808 328.01953125 101.90234375 C326.27446289 101.90717773 326.27446289 101.90717773 324.49414062 101.91210938 C322.67172852 101.92467773 322.67172852 101.92467773 320.8125 101.9375 C318.97268555 101.94426758 318.97268555 101.94426758 317.09570312 101.95117188 C314.06375332 101.96296935 311.03190094 101.97943079 308 102 C308.30736084 101.15115234 308.61472168 100.30230469 308.93139648 99.42773438 C314.65336209 83.08150226 313.96976172 64.13736284 306.48071289 48.5390625 C305.05102859 45.65612558 303.54297974 42.82381884 302 40 C301.38511719 38.83339844 300.77023437 37.66679688 300.13671875 36.46484375 C297.99379612 32.75020373 295.31153109 29.85336638 292.25 26.875 C291.722854 26.35583008 291.19570801 25.83666016 290.65258789 25.30175781 C283.83562339 18.53277057 283.83562339 18.53277057 275 16 C275 15.34 275 14.68 275 14 C266.34516477 10.54907115 258.78576887 9.37323182 249.5 9.5 C247.80037109 9.47679687 247.80037109 9.47679687 246.06640625 9.453125 C229.9726288 9.5268651 216.34828913 16.26026984 205 27.5 C200.96756237 31.72081428 197.79822668 35.88599952 195 41 C191.56154565 39.85384855 191.13852765 38.80474822 189.28125 35.87109375 C182.12890412 25.42605205 172.55864613 17.97072853 161 13 C159.83726562 12.46890625 158.67453125 11.9378125 157.4765625 11.390625 C151.91851885 9.34918658 146.29659101 9.4665219 140.4375 9.5 C138.7047583 9.50858032 138.7047583 9.50858032 136.93701172 9.51733398 C120.89891519 9.85150788 105.66609586 15.65796236 94 27 Z " fill="#FDFDFE" transform="translate(0,0)"/>
<path d="M0 0 C2.50400439 1.71905003 4.8012517 3.55984065 7.1171875 5.5234375 C7.92285156 6.1215625 8.72851562 6.7196875 9.55859375 7.3359375 C16.62484034 12.64391616 22.31456248 18.91364671 28.1171875 25.5234375 C29.07431641 26.59271484 29.07431641 26.59271484 30.05078125 27.68359375 C34.16153026 32.30699968 38.06418086 37.09421699 41.9609375 41.8984375 C43.82608926 44.16905704 45.73466501 46.38402525 47.6796875 48.5859375 C50.1171875 51.5234375 50.1171875 51.5234375 50.1171875 53.5234375 C50.68695313 53.75289062 51.25671875 53.98234375 51.84375 54.21875 C60.32252492 59.08457615 65.41732173 69.85678223 69.1171875 78.5234375 C69.52106689 79.41240723 69.52106689 79.41240723 69.93310547 80.31933594 C72.21924908 85.72540912 72.58919155 90.56766267 72.4921875 96.3984375 C72.48131104 97.28394287 72.47043457 98.16944824 72.45922852 99.08178711 C72.13456034 112.37357959 67.36316184 122.34931361 58.0546875 131.9609375 C52.33831187 137.33783489 46.26368653 140.47902891 39.1171875 143.5234375 C38.4571875 143.8534375 37.7971875 144.1834375 37.1171875 144.5234375 C34.60222901 144.67621535 32.13341067 144.75493586 29.6171875 144.7734375 C28.61171875 144.804375 28.61171875 144.804375 27.5859375 144.8359375 C17.60679021 144.9115371 9.03342414 140.7872839 0.2421875 136.4609375 C-0.68078125 136.01427734 -1.60375 135.56761719 -2.5546875 135.10742188 C-9.43539421 131.77177492 -9.43539421 131.77177492 -11.90307617 130.40209961 C-20.57440939 126.55352047 -35.06245614 129.03746595 -43.58203125 132.109375 C-49.16858625 134.50266838 -54.67393594 137.04753545 -60.1328125 139.71875 C-60.78846191 140.03408691 -61.44411133 140.34942383 -62.11962891 140.67431641 C-63.53207707 141.35452891 -64.93888633 142.04644549 -66.34375 142.7421875 C-75.21883771 145.47298372 -87.09312236 144.51510931 -95.49609375 140.84765625 C-102.75360849 136.82098277 -109.0430316 131.29290597 -113.8828125 124.5234375 C-113.8828125 123.8634375 -113.8828125 123.2034375 -113.8828125 122.5234375 C-114.5428125 122.5234375 -115.2028125 122.5234375 -115.8828125 122.5234375 C-116.51317476 120.85879153 -117.13678843 119.19158974 -117.7578125 117.5234375 C-118.10585937 116.5953125 -118.45390625 115.6671875 -118.8125 114.7109375 C-123.81654036 99.80839395 -123.34928924 85.86751875 -116.48046875 71.61328125 C-111.80118396 62.92971852 -105.47608919 55.77868977 -98.8828125 48.5234375 C-98.38056152 47.97010742 -97.87831055 47.41677734 -97.36083984 46.84667969 C-94.39229283 43.58873079 -91.39568701 40.357781 -88.38720703 37.13671875 C-86.36142374 34.9643111 -84.34592967 32.78252557 -82.33227539 30.59887695 C-81.32686946 29.50970073 -80.31955191 28.42228589 -79.31030273 27.33666992 C-76.87513243 24.71256056 -74.47551167 22.0694173 -72.140625 19.35546875 C-62.23102184 7.93538662 -51.40282853 0.76396369 -36.8828125 -3.4765625 C-35.88701172 -3.77820313 -35.88701172 -3.77820313 -34.87109375 -4.0859375 C-24.31228001 -6.16036063 -9.66812341 -4.95196565 0 0 Z " fill="#FDFAF6" transform="translate(218.8828125,185.4765625)"/>
<path d="M0 0 C12.40116127 7.21985416 20.49500903 18.41643227 24.640625 32.1171875 C24.9503717 33.36117022 25.23819348 34.61095026 25.49731445 35.86645508 C26.03867566 38.16415086 26.77547796 40.34476648 27.52734375 42.58203125 C29.15901364 47.99337334 29.50079519 52.99725427 29.4375 58.625 C29.42992676 59.57850342 29.42235352 60.53200684 29.41455078 61.5144043 C29.13023132 73.88852663 26.98827881 85.16827223 19 95 C18.4225 95.886875 17.845 96.77375 17.25 97.6875 C11.89179339 103.19454569 4.77070837 107.06397448 -2.9375 107.4375 C-15.73233494 107.20242429 -24.9189715 98.4437526 -33.37207031 89.74658203 C-47.07062746 75.04959975 -55.17269991 59.16922207 -55.1875 38.9375 C-55.19974609 38.05255859 -55.21199219 37.16761719 -55.22460938 36.25585938 C-55.23487355 31.69514365 -55.10968771 28.14402944 -53 24 C-52.72800781 23.28199219 -52.45601563 22.56398438 -52.17578125 21.82421875 C-49.76161503 15.84888426 -46.53111309 11.55039443 -42 7 C-41.47664063 6.4534375 -40.95328125 5.906875 -40.4140625 5.34375 C-29.05889029 -5.51290246 -13.72242741 -6.93985226 0 0 Z " fill="#FCFAF6" transform="translate(155,37)"/>
<path d="M0 0 C14.4863679 2.14708667 27.30108837 17.41622054 35.8828125 28.33984375 C38.72716005 31.91364574 41.78749602 35.26653845 44.859375 38.64453125 C46.88365381 40.87197672 48.88681328 43.1153172 50.875 45.375 C51.40867187 45.98085937 51.94234375 46.58671875 52.4921875 47.2109375 C57 52.55958549 57 52.55958549 57 55 C57.56976563 55.22945312 58.13953125 55.45890625 58.7265625 55.6953125 C67.20533742 60.56113865 72.30013423 71.33334473 76 80 C76.40387939 80.88896973 76.40387939 80.88896973 76.81591797 81.79589844 C79.10206158 87.20197162 79.47200405 92.04422517 79.375 97.875 C79.36412354 98.76050537 79.35324707 99.64601074 79.34204102 100.55834961 C79.01737284 113.85014209 74.24597434 123.82587611 64.9375 133.4375 C59.22112437 138.81439739 53.14649903 141.95559141 46 145 C45.34 145.33 44.68 145.66 44 146 C41.48504151 146.15277785 39.01622317 146.23149836 36.5 146.25 C35.49453125 146.2809375 35.49453125 146.2809375 34.46875 146.3125 C24.48960271 146.3880996 15.91623664 142.2638464 7.125 137.9375 C6.20203125 137.49083984 5.2790625 137.04417969 4.328125 136.58398438 C-2.55258171 133.24833742 -2.55258171 133.24833742 -5.02026367 131.87866211 C-13.69159689 128.03008297 -28.17964364 130.51402845 -36.69921875 133.5859375 C-42.28577375 135.97923088 -47.79112344 138.52409795 -53.25 141.1953125 C-53.90564941 141.51064941 -54.56129883 141.82598633 -55.23681641 142.15087891 C-56.64926457 142.83109141 -58.05607383 143.52300799 -59.4609375 144.21875 C-68.33602521 146.94954622 -80.21030986 145.99167181 -88.61328125 142.32421875 C-95.87079599 138.29754527 -102.1602191 132.76946847 -107 126 C-107 125.34 -107 124.68 -107 124 C-107.66 124 -108.32 124 -109 124 C-109.67467562 122.25307205 -110.33944156 120.50231475 -111 118.75 C-111.37125 117.77546875 -111.7425 116.8009375 -112.125 115.796875 C-113 113 -113 113 -113 109 C-109.66863403 110.42353524 -107.72335243 112.1335313 -105.375 114.875 C-104.78460938 115.55304688 -104.19421875 116.23109375 -103.5859375 116.9296875 C-102 119 -102 119 -101.1015625 121.1328125 C-99.46072512 123.91409005 -98.12933177 124.18224448 -95 125 C-91.56615657 125.36625702 -88.13779795 125.50795809 -84.6875 125.625 C-83.75615234 125.66367187 -82.82480469 125.70234375 -81.86523438 125.7421875 C-79.57701593 125.83606313 -77.28879705 125.92174509 -75 126 C-75 125.34 -75 124.68 -75 124 C-74.15115234 123.81824219 -74.15115234 123.81824219 -73.28515625 123.6328125 C-72.55167969 123.46523438 -71.81820312 123.29765625 -71.0625 123.125 C-70.33160156 122.96257812 -69.60070312 122.80015625 -68.84765625 122.6328125 C-66.79299706 122.17038477 -66.79299706 122.17038477 -66 120 C-64.41841339 119.34673597 -62.8353488 118.69688039 -61.24609375 118.0625 C-57.38360097 116.23537298 -53.90557562 113.79088693 -50.35546875 111.42578125 C-48 110 -48 110 -46 110 C-46 109.34 -46 108.68 -46 108 C-38.81840121 104.55427357 -32.92547825 103.43774753 -25 103.6875 C-24.07960938 103.69716797 -23.15921875 103.70683594 -22.2109375 103.71679688 C-16.95083523 103.80199571 -11.78207744 104.19659071 -6.55419922 104.75756836 C11.38705719 106.69375885 11.38705719 106.69375885 27.78125 100.8359375 C28.5134375 100.23007812 29.245625 99.62421875 30 99 C30.8146875 98.37351562 31.629375 97.74703125 32.46875 97.1015625 C40.3210048 90.65149605 44.24497042 83.67620145 47 74 C47.66 74 48.32 74 49 74 C49.08174756 60.79891865 49.08174756 60.79891865 44 49 C43.12794922 47.71416016 43.12794922 47.71416016 42.23828125 46.40234375 C38.34201484 40.83734242 34.1208923 35.72471816 29.46875 30.77734375 C28 29 28 29 28 27 C27.01 26.67 26.02 26.34 25 26 C23.45703125 24.43359375 23.45703125 24.43359375 21.8125 22.4375 C18.58173558 18.60614476 15.13120266 15.11928602 11.50390625 11.6640625 C10 10 10 10 10 8 C9.1028125 7.9071875 9.1028125 7.9071875 8.1875 7.8125 C5.1267611 6.67565412 4.56360154 4.7872897 3 2 C2.01 1.34 1.02 0.68 0 0 Z " fill="#F8BAA1" transform="translate(212,184)"/>
<path d="M0 0 C6.0702626 4.35117739 11.28892332 9.47760941 14.8828125 16.06640625 C14.8828125 17.38640625 14.8828125 18.70640625 14.8828125 20.06640625 C15.5428125 20.06640625 16.2028125 20.06640625 16.8828125 20.06640625 C21.82916735 32.0677214 19.95954852 50.0185442 15.8828125 62.06640625 C11.13922913 73.13476744 3.98984637 82.28277939 -4.1171875 91.06640625 C-4.80683594 91.84886719 -5.49648438 92.63132812 -6.20703125 93.4375 C-11.11365285 98.74548124 -16.65084737 101.92032494 -23.1171875 105.06640625 C-24.1071875 105.56140625 -24.1071875 105.56140625 -25.1171875 106.06640625 C-34.46784183 106.8042424 -41.00229072 105.84149822 -48.3046875 99.69140625 C-51.21330993 97.01999186 -53.87435498 94.33720367 -56.1171875 91.06640625 C-56.1171875 90.40640625 -56.1171875 89.74640625 -56.1171875 89.06640625 C-56.7771875 89.06640625 -57.4371875 89.06640625 -58.1171875 89.06640625 C-66.9809626 74.15914813 -64.10588271 51.47026745 -61.1171875 35.06640625 C-57.38176764 20.59165428 -48.15204987 7.04549101 -35.27734375 -0.75 C-34.56449219 -1.14058594 -33.85164063 -1.53117187 -33.1171875 -1.93359375 C-32.51777344 -2.27261719 -31.91835937 -2.61164062 -31.30078125 -2.9609375 C-20.89557689 -7.83767475 -9.45258198 -5.74819174 0 0 Z " fill="#FCFAF6" transform="translate(268.1171875,37.93359375)"/>
<path d="M0 0 C6.61159992 4.62687949 12.7534031 11.06022566 15.76953125 18.64453125 C16.27597853 22.01838453 16.24057296 25.30260531 16.14453125 28.70703125 C16.14324219 29.57908203 16.14195312 30.45113281 16.140625 31.34960938 C15.94487015 45.71584015 7.5925264 59.08593675 -2.37109375 69.0546875 C-6.65393196 72.93381555 -11.16150303 75.89762063 -16.23046875 78.64453125 C-17.1225 79.13824219 -18.01453125 79.63195312 -18.93359375 80.140625 C-28.7603499 85.33350662 -40.23158171 86.23144182 -51.14453125 84.06640625 C-58.12477303 81.6288615 -63.24239215 76.97402878 -68.23046875 71.64453125 C-68.95105469 70.92265625 -69.67164063 70.20078125 -70.4140625 69.45703125 C-75.66470308 63.03371239 -75.86337466 56.56550638 -75.91796875 48.58203125 C-75.92521973 47.56488037 -75.9324707 46.54772949 -75.93994141 45.49975586 C-75.56775192 30.07387549 -67.00413842 18.12326954 -56.23046875 7.64453125 C-40.26680852 -5.32439582 -18.62650341 -11.31943377 0 0 Z " fill="#FCFAF6" transform="translate(339.23046875,131.35546875)"/>
<path d="M0 0 C0.84691406 0.26683594 1.69382813 0.53367188 2.56640625 0.80859375 C9.48278829 3.24393954 14.48840414 7.25724861 20 12 C20.84175781 12.65226563 21.68351562 13.30453125 22.55078125 13.9765625 C30.81729367 20.80599381 39.2836996 33.18523965 41 44 C41.91247632 59.38926414 41.91247632 59.38926414 38 66 C37.61328125 66.66386719 37.2265625 67.32773438 36.828125 68.01171875 C33.05547065 74.31112 29.45277765 79.21250007 23 83 C22.34 83 21.68 83 21 83 C21 83.66 21 84.32 21 85 C10.02506332 89.70354429 -2.17445727 89.55548076 -13.265625 85.25390625 C-29.12674724 77.98044876 -41.24845633 65.83132618 -48.03515625 49.67578125 C-51.96025569 38.79038403 -53.00560361 26.78380077 -48.08203125 16.1015625 C-45.42881452 10.94838344 -45.42881452 10.94838344 -44 9 C-43.34 9 -42.68 9 -42 9 C-41.67 8.01 -41.34 7.02 -41 6 C-28.26670343 -4.20937529 -15.10440617 -5.00590793 0 0 Z " fill="#FDFAF4" transform="translate(84,128)"/>
<path d="M0 0 C10.00431239 2.5010781 16.48598014 9.9398114 22.1484375 18.09375 C24.68551681 22.62913965 24.51843829 26.97799019 24.375 32.0625 C24.37371094 32.93455078 24.37242187 33.80660156 24.37109375 34.70507812 C24.1753389 49.0713089 15.82299515 62.4414055 5.859375 72.41015625 C1.57653679 76.2892843 -2.93103428 79.25308938 -8 82 C-8.89203125 82.49371094 -9.7840625 82.98742187 -10.703125 83.49609375 C-20.52988115 88.68897537 -32.00111296 89.58691057 -42.9140625 87.421875 C-49.89430428 84.98433025 -55.0119234 80.32949753 -60 75 C-60.72058594 74.278125 -61.44117188 73.55625 -62.18359375 72.8125 C-69.67070269 63.65321985 -67.60979274 51.13575357 -67 40 C-66.67 40 -66.34 40 -66 40 C-66.00902344 40.67804688 -66.01804687 41.35609375 -66.02734375 42.0546875 C-65.77289676 50.04211028 -63.45548656 55.15162861 -58 61 C-50.77735593 65.86422968 -41.42999269 65.70165198 -33 65 C-21.3149549 62.08338302 -11.58569626 52.65145142 -5 43 C-2.98672619 39.44321626 -1.45847166 35.81446435 0 32 C0.66 32 1.32 32 2 32 C4.06667259 21.41663633 4.35473717 9.97960602 0 0 Z " fill="#F7C0A8" transform="translate(331,128)"/>
<path d="M0 0 C12.34786923 -1.07595541 20.63477984 0.87016022 30.4453125 9.03515625 C34.20484645 12.63515278 37.50444777 16.42482091 40 21 C40 22.32 40 23.64 40 25 C40.66 25 41.32 25 42 25 C46.94635485 37.00131515 45.07673602 54.95213795 41 67 C36.25641663 78.06836119 29.10703387 87.21637314 21 96 C20.31035156 96.78246094 19.62070312 97.56492187 18.91015625 98.37109375 C14.00353465 103.67907499 8.46634013 106.85391869 2 110 C1.01 110.495 1.01 110.495 0 111 C-6.97631811 111.55048337 -12.88556496 111.56675377 -19 108 C-21.4375 105.8125 -21.4375 105.8125 -23 104 C-22.34 104 -21.68 104 -21 104 C-20.97873047 102.67935547 -20.97873047 102.67935547 -20.95703125 101.33203125 C-20.57072571 91.92496925 -20.57072571 91.92496925 -18.1875 88.0625 C-15.29483271 86.19077411 -12.48366606 84.7801452 -9.375 83.3125 C1.33146004 78.21040917 9.93517396 69.70613635 15 59 C15.50660156 58.05640625 16.01320313 57.1128125 16.53515625 56.140625 C17.03917969 55.18671875 17.54320312 54.2328125 18.0625 53.25 C18.56910156 52.30640625 19.07570313 51.3628125 19.59765625 50.390625 C22.99385045 42.17921395 23.35662213 33.66437523 23.625 24.875 C23.66367187 23.823125 23.70234375 22.77125 23.7421875 21.6875 C23.83536341 19.12516244 23.92117382 16.56281221 24 14 C23.34 14 22.68 14 22 14 C21.75765625 13.46890625 21.5153125 12.9378125 21.265625 12.390625 C20.93046875 11.68421875 20.5953125 10.9778125 20.25 10.25 C19.92515625 9.55390625 19.6003125 8.8578125 19.265625 8.140625 C17.72383118 5.53289965 16.41400524 3.85943647 14 2 C10.50727748 1.30220618 10.50727748 1.30220618 6.75 1.25 C4.85507813 1.16492187 4.85507813 1.16492187 2.921875 1.078125 C1.95765625 1.05234375 0.9934375 1.0265625 0 1 C0 0.67 0 0.34 0 0 Z " fill="#FAC6AC" transform="translate(243,33)"/>
<path d="M0 0 C6.95415461 2.64685317 12.30352802 6.25987003 18 11 C19.24910156 11.96292969 19.24910156 11.96292969 20.5234375 12.9453125 C28.79523599 19.8080349 37.27873388 32.15394961 39 43 C39.91247632 58.38926414 39.91247632 58.38926414 36 65 C35.61328125 65.66386719 35.2265625 66.32773438 34.828125 67.01171875 C31.05547065 73.31112 27.45277765 78.21250007 21 82 C20.34 82 19.68 82 19 82 C19 82.66 19 83.32 19 84 C8.02506332 88.70354429 -4.17445727 88.55548076 -15.265625 84.25390625 C-31.26756378 76.91587432 -43.16880118 64.74256065 -50.1015625 48.52734375 C-51.24912938 45.29918823 -51.77257224 42.41141644 -52 39 C-51.34 39 -50.68 39 -50 39 C-49.608125 39.886875 -49.21625 40.77375 -48.8125 41.6875 C-46.85447716 45.26595554 -45.00994965 47.24621628 -42 50 C-41.31035156 50.68191406 -40.62070312 51.36382812 -39.91015625 52.06640625 C-31.51107063 60.11155957 -23.09866579 66.35313987 -11.125 66.625 C-5.6640462 66.34437545 -1.68865264 65.79323987 3 63 C4.010625 62.443125 5.02125 61.88625 6.0625 61.3125 C12.57887149 56.18259053 16.23998339 50.27309429 17.25097656 41.9284668 C18.00168595 31.47165157 17.28940632 23.73962168 11 15 C10.360625 13.9275 9.72125 12.855 9.0625 11.75 C6.75850491 8.67800654 4.19381754 6.13036762 1.390625 3.515625 C0 2 0 2 0 0 Z " fill="#F5BDA6" transform="translate(86,129)"/>
<path d="M0 0 C10.75227286 3.36008527 17.41029034 12.3113258 22.54296875 21.875 C24.70275858 26.43526005 26.47645107 30.92012094 27.49731445 35.86645508 C28.03867566 38.16415086 28.77547796 40.34476648 29.52734375 42.58203125 C31.15901364 47.99337334 31.50079519 52.99725427 31.4375 58.625 C31.42992676 59.57850342 31.42235352 60.53200684 31.41455078 61.5144043 C31.13023132 73.88852663 28.98827881 85.16827223 21 95 C20.4225 95.886875 19.845 96.77375 19.25 97.6875 C13.89179339 103.19454569 6.77070837 107.06397448 -0.9375 107.4375 C-7.80654759 107.40086508 -13.32840348 104.74161504 -19 101 C-19.66 100.01 -20.32 99.02 -21 98 C-20.24847656 98.07734375 -19.49695313 98.1546875 -18.72265625 98.234375 C-15.93510419 98.26092391 -15.93510419 98.26092391 -14.12109375 96.390625 C-13.56550781 95.68421875 -13.00992188 94.9778125 -12.4375 94.25 C-10.59917244 91.97302595 -8.91137333 89.91875889 -6.75 87.9375 C-4.83856576 85.82126923 -3.89455494 83.72174011 -2.859375 81.08203125 C-1.15103657 76.94319315 0.96974992 72.98827782 3 69 C3.66 69 4.32 69 5 69 C5.12117188 68.45472656 5.24234375 67.90945312 5.3671875 67.34765625 C6.20193797 63.59127915 7.03808659 59.85973335 8.046875 56.14453125 C9.39327371 50.04914327 9.37208836 43.8939791 9.37060547 37.68066406 C9.37497815 35.63521925 9.41140174 33.5919401 9.44921875 31.546875 C9.51811863 23.56004882 8.99599125 16.10154387 5 9 C4.01 8.34 3.02 7.68 2 7 C0.38214873 4.36034793 0 3.15987325 0 0 Z " fill="#F8C2AA" transform="translate(153,37)"/>
<path d="M0 0 C1.05960937 0.02707031 2.11921875 0.05414063 3.2109375 0.08203125 C4.40589844 0.13423828 4.40589844 0.13423828 5.625 0.1875 C6.12 1.1775 6.12 1.1775 6.625 2.1875 C5.42101562 2.28546875 4.21703125 2.3834375 2.9765625 2.484375 C1.40094773 2.63443355 -0.17456853 2.78552912 -1.75 2.9375 C-2.5440625 2.999375 -3.338125 3.06125 -4.15625 3.125 C-6.30576831 3.34359508 -8.30163546 3.57660576 -10.375 4.1875 C-11.57355526 6.1261606 -11.57355526 6.1261606 -12.375 8.1875 C-15.16015625 9.1640625 -15.16015625 9.1640625 -18.4375 9.8125 C-20.42876876 10.21501568 -22.41272456 10.66152926 -24.375 11.1875 C-24.705 11.8475 -25.035 12.5075 -25.375 13.1875 C-33.96275331 17.2907474 -42.26912266 17.70161814 -51.625 17.4375 C-52.85863281 17.41945313 -54.09226563 17.40140625 -55.36328125 17.3828125 C-58.36803791 17.33622713 -61.37107674 17.27083547 -64.375 17.1875 C-64.375 16.5275 -64.375 15.8675 -64.375 15.1875 C-63.14007813 15.24550781 -61.90515625 15.30351562 -60.6328125 15.36328125 C-41.16645744 15.99641215 -26.17747621 11.02572083 -9.3828125 1.48828125 C-5.9963875 0.02376239 -3.6665184 -0.12221728 0 0 Z " fill="#E4C8C0" transform="translate(193.375,337.8125)"/>
<path d="M0 0 C2.475 0.495 2.475 0.495 5 1 C5 1.66 5 2.32 5 3 C5.680625 3.103125 6.36125 3.20625 7.0625 3.3125 C9.91916671 3.98108157 12.43298044 4.9849522 15.109375 6.171875 C17.0787323 7.03448605 19.05897734 7.84500263 21.0625 8.625 C21.67222656 8.86476563 22.28195313 9.10453125 22.91015625 9.3515625 C27.58020167 10.80058594 32.19009903 11.12273145 37.0546875 11.09765625 C38.16328125 11.09443359 39.271875 11.09121094 40.4140625 11.08789062 C42.12722656 11.07532227 42.12722656 11.07532227 43.875 11.0625 C45.0403125 11.05798828 46.205625 11.05347656 47.40625 11.04882812 C50.27088645 11.03708781 53.13541633 11.0206657 56 11 C55.67 11.99 55.34 12.98 55 14 C19.83909348 14.76770538 19.83909348 14.76770538 10 7 C9.01 6.67 8.02 6.34 7 6 C7 5.34 7 4.68 7 4 C4.69 3.67 2.38 3.34 0 3 C0 2.01 0 1.02 0 0 Z " fill="#D0B7B2" transform="translate(204,341)"/>
<path d="M0 0 C5.73091655 2.2349326 9.9590812 4.30732011 14 9 C13.01 9 12.02 9 11 9 C11 9.66 11 10.32 11 11 C11.66 11.33 12.32 11.66 13 12 C20.38709635 22.6213432 20.14587209 34.55355081 19 47 C18.6968955 48.34052846 18.37328443 49.67729534 18 51 C17.34 51 16.68 51 16 51 C16.15597656 50.02546875 16.31195313 49.0509375 16.47265625 48.046875 C18.19305259 35.8415676 18.44495246 25.34534337 11 15 C10.0409375 13.39125 10.0409375 13.39125 9.0625 11.75 C6.75850491 8.67800654 4.19381754 6.13036762 1.390625 3.515625 C0 2 0 2 0 0 Z " fill="#FADECD" transform="translate(86,129)"/>
<path d="M0 0 C0 4.99661309 -2.72007928 9.31008919 -6 13 C-6.99 13.33 -7.98 13.66 -9 14 C-9.33 14.66 -9.66 15.32 -10 16 C-10.66 16 -11.32 16 -12 16 C-12.185625 16.5775 -12.37125 17.155 -12.5625 17.75 C-14.73128715 21.14462336 -17.40994626 22.20497313 -21 24 C-21.66 24 -22.32 24 -23 24 C-23 24.66 -23 25.32 -23 26 C-24.56119422 26.79423861 -26.12401964 27.58527123 -27.6875 28.375 C-28.55761719 28.81585938 -29.42773438 29.25671875 -30.32421875 29.7109375 C-37.36519608 33.10294118 -37.36519608 33.10294118 -40.3125 32.625 C-40.869375 32.41875 -41.42625 32.2125 -42 32 C-41.34 32 -40.68 32 -40 32 C-40 31.34 -40 30.68 -40 30 C-39.33613281 29.82984375 -38.67226563 29.6596875 -37.98828125 29.484375 C-32.72810912 28.04070732 -29.11222971 26.69046256 -25 23 C-23.57204254 22.04802836 -22.13335598 21.11206097 -20.6875 20.1875 C-12.25733493 14.590652 -6.09703772 8.05911634 0 0 Z " fill="#6E6FB4" transform="translate(365,205)"/>
<path d="M0 0 C-0.11509661 1.41750563 -0.24253658 2.83401169 -0.375 4.25 C-0.44460937 5.03890625 -0.51421875 5.8278125 -0.5859375 6.640625 C-1.01507113 9.085877 -1.78600638 10.84836903 -3 13 C-3.50789062 12.54109375 -4.01578125 12.0821875 -4.5390625 11.609375 C-7.74638052 8.75041736 -10.88485154 5.96014375 -14.5 3.625 C-15.325 3.08875 -16.15 2.5525 -17 2 C-17 1.67 -17 1.34 -17 1 C-5.47835991 -0.14806378 -5.47835991 -0.14806378 0 0 Z " fill="#E2E5EB" transform="translate(245,165)"/>
<path d="M0 0 C5.61 0.33 11.22 0.66 17 1 C15.68 1.99 14.36 2.98 13 4 C12.34 4.50660156 11.68 5.01320312 11 5.53515625 C10.34 6.03917969 9.68 6.54320312 9 7.0625 C8.34 7.56910156 7.68 8.07570312 7 8.59765625 C5 10 5 10 1 12 C0.67 8.04 0.34 4.08 0 0 Z " fill="#E6E8EE" transform="translate(144,165)"/>
<path d="M0 0 C4.63398087 4.20364792 5.77464054 9.29452478 6.28417969 15.41162109 C6.38305309 18.66218988 6.4216547 21.90266354 6.39111328 25.15454102 C6.37516341 27.16688287 6.39095654 29.17717573 6.41015625 31.18945312 C6.34388135 53.68978065 6.34388135 53.68978065 0 61 C0.63270153 56.20252529 1.53171803 51.53816229 2.5625 46.8125 C5.16898339 33.81877789 4.68269667 20.10099554 3 7 C2.34 7 1.68 7 1 7 C0.67 4.69 0.34 2.38 0 0 Z " fill="#FAE1D1" transform="translate(157,45)"/>
<path d="M0 0 C1.98 0.66 3.96 1.32 6 2 C5.01 3.485 5.01 3.485 4 5 C4.33 5.66 4.66 6.32 5 7 C5.26724768 10.38959136 5.23161489 13.78855332 5.25 17.1875 C5.270625 18.12142578 5.29125 19.05535156 5.3125 20.01757812 C5.3451392 25.81511546 4.70497738 29.85342462 2 35 C1.34 35 0.68 35 0 35 C-0.07476562 35.86238281 -0.14953125 36.72476563 -0.2265625 37.61328125 C-1.15828324 41.69308874 -2.80392534 43.90501147 -5.375 47.1875 C-6.16648437 48.21230469 -6.95796875 49.23710937 -7.7734375 50.29296875 C-9.44512806 52.32539254 -11.08598192 54.20329271 -13 56 C-13.66 55.67 -14.32 55.34 -15 55 C-14.48050781 54.45472656 -13.96101563 53.90945312 -13.42578125 53.34765625 C-7.45371078 46.8898721 -2.95637129 40.33159181 0 32 C0.66 32 1.32 32 2 32 C4.06667259 21.41663633 4.35473717 9.97960602 0 0 Z " fill="#F6DACB" transform="translate(331,128)"/>
<path d="M0 0 C1 3 1 3 0 6 C-0.66 6 -1.32 6 -2 6 C-2.0825 6.7425 -2.165 7.485 -2.25 8.25 C-3.14842053 11.5442086 -4.58524799 12.66070899 -7 15 C-7.7872678 17.1381966 -7.7872678 17.1381966 -8 19 C-8.66 19 -9.32 19 -10 19 C-10.309375 19.8353125 -10.309375 19.8353125 -10.625 20.6875 C-12.57485046 23.96679396 -14.90276105 25.79619536 -18 28 C-21.375 28.8125 -21.375 28.8125 -24 29 C-21.47160437 26.39723979 -19.08991031 24.06793223 -16.1875 21.875 C-9.26140413 16.21630827 -4.57328378 7.57450127 0 0 Z " fill="#6B6AAD" transform="translate(309,313)"/>
<path d="M0 0 C0.66 0 1.32 0 2 0 C2.50435694 1.9363704 3.00333874 3.87414146 3.5 5.8125 C3.7784375 6.89144531 4.056875 7.97039062 4.34375 9.08203125 C5 12 5 12 5 15 C4.21874756 14.99476318 3.43749512 14.98952637 2.63256836 14.98413086 C-0.93244613 14.96324881 -4.49744771 14.95030419 -8.0625 14.9375 C-9.29162109 14.92912109 -10.52074219 14.92074219 -11.78710938 14.91210938 C-17.62786137 14.89636611 -23.25197017 14.91530492 -29 16 C-24.44425795 12.96283863 -20.9605391 11.74345766 -15.48046875 11.8046875 C-14.45888672 11.81113281 -13.43730469 11.81757812 -12.38476562 11.82421875 C-11.32966797 11.84097656 -10.27457031 11.85773438 -9.1875 11.875 C-8.11306641 11.88402344 -7.03863281 11.89304687 -5.93164062 11.90234375 C-3.28753146 11.92584694 -0.64388128 11.95870425 2 12 C1.67 10.7625 1.34 9.525 1 8.25 C0.20108841 5.25408155 0 3.19892281 0 0 Z " fill="#575F88" transform="translate(76,89)"/>
<path d="M0 0 C11.21133223 -0.97692107 18.60139641 0.24871198 28 7 C30.92618205 9.46205952 33.67915854 11.94995156 36 15 C36 15.66 36 16.32 36 17 C35.34 17 34.68 17 34 17 C32.43401182 15.28636151 31.05071958 13.46624657 29.6328125 11.62890625 C27.77690532 9.77743904 26.55570059 9.39275918 24 9 C23.67 10.65 23.34 12.3 23 14 C22.34 13.01 21.68 12.02 21 11 C19.98716127 9.61910051 18.96582049 8.2444096 17.9375 6.875 C17.41027344 6.17117187 16.88304687 5.46734375 16.33984375 4.7421875 C15.11532523 3.07217635 15.11532523 3.07217635 14 2 C11.65012738 1.76472227 9.29443961 1.58613583 6.9375 1.4375 C5.64714844 1.35371094 4.35679687 1.26992188 3.02734375 1.18359375 C1.52880859 1.09271484 1.52880859 1.09271484 0 1 C0 0.67 0 0.34 0 0 Z " fill="#E7C9C0" transform="translate(243,33)"/>
<path d="M0 0 C2.97790338 1.19116135 4.51091369 2.49522465 6.5 5 C6.5 5.99 6.5 6.98 6.5 8 C1.88 8 -2.74 8 -7.5 8 C-6.38087819 3.52351275 -5.11366291 0 0 0 Z " fill="#E5E5EF" transform="translate(194.5,148)"/>
<path d="M0 0 C2.8358841 0.9452947 4.71523725 1.70541784 6.8125 3.875 C9.31521066 6.30620464 11.72723177 7.51892013 14.859375 8.9921875 C16.94491935 9.97406787 18.9649073 11.04335624 21 12.125 C24.90583531 14.093417 28.73078809 15.08516888 33 16 C33 16.33 33 16.66 33 17 C25.53553385 16.71877045 19.7929522 15.05191864 13.125 11.75 C11.88363281 11.17572266 11.88363281 11.17572266 10.6171875 10.58984375 C6.03756196 8.3812824 2.74129166 6.46396129 0 2 C0 1.34 0 0.68 0 0 Z " fill="#AFABE7" transform="translate(37,222)"/>
<path d="M0 0 C1 2 1 2 0.29296875 4.390625 C-0.07183594 5.33421875 -0.43664062 6.2778125 -0.8125 7.25 C-4.19490734 15.89660544 -4.19490734 15.89660544 -5.1953125 25.0546875 C-5.18886719 26.16328125 -5.18242187 27.271875 -5.17578125 28.4140625 C-5.15902344 29.55617187 -5.14226563 30.69828125 -5.125 31.875 C-5.11597656 33.0403125 -5.10695313 34.205625 -5.09765625 35.40625 C-5.07417432 38.27104577 -5.04133141 41.13541535 -5 44 C-7 42 -7 42 -7.22705078 39.29443359 C-7.21657715 38.17375488 -7.20610352 37.05307617 -7.1953125 35.8984375 C-7.18886719 34.68671875 -7.18242188 33.475 -7.17578125 32.2265625 C-7.15902344 30.95554688 -7.14226563 29.68453125 -7.125 28.375 C-7.11146484 26.456875 -7.11146484 26.456875 -7.09765625 24.5 C-7.07402303 21.33314833 -7.04107629 18.16666576 -7 15 C-6.34 15 -5.68 15 -5 15 C-5.04125 13.9275 -5.0825 12.855 -5.125 11.75 C-5.0114175 8.34252515 -4.78726636 6.79260369 -3 4 C-2.34 4 -1.68 4 -1 4 C-0.67 2.68 -0.34 1.36 0 0 Z " fill="#D4D5EE" transform="translate(14,132)"/>
<path d="M0 0 C0.66 0.33 1.32 0.66 2 1 C-0.45023758 3.50804718 -2.91147598 6.0050076 -5.375 8.5 C-6.42300781 9.57314453 -6.42300781 9.57314453 -7.4921875 10.66796875 C-8.1625 11.34472656 -8.8328125 12.02148438 -9.5234375 12.71875 C-10.14138184 13.34716797 -10.75932617 13.97558594 -11.39599609 14.62304688 C-13 16 -13 16 -15 16 C-15 16.66 -15 17.32 -15 18 C-15.99 18.33 -16.98 18.66 -18 19 C-16.58419794 14.44625068 -14.04489128 11.62092411 -10.6875 8.375 C-10.21376953 7.89804688 -9.74003906 7.42109375 -9.25195312 6.9296875 C-6.4002813 4.12092729 -3.61216329 1.75323588 0 0 Z " fill="#303A6C" transform="translate(35,110)"/>
<path d="M0 0 C1.61301773 3.22603545 1.12053599 6.74710038 1.09765625 10.2890625 C1.0962413 11.10748627 1.09482635 11.92591003 1.09336853 12.76913452 C1.0877629 15.38779325 1.07520948 18.00636704 1.0625 20.625 C1.05748572 22.39843627 1.05292269 24.17187387 1.04882812 25.9453125 C1.03779164 30.29690782 1.02052325 34.6484395 1 39 C1.99 39.33 2.98 39.66 4 40 C4 41.98 4 43.96 4 46 C-0.23257699 41.76742301 -1.34199613 37.487033 -1.36553955 31.70463562 C-1.35319275 30.92941055 -1.34084595 30.15418549 -1.328125 29.35546875 C-1.32625183 28.54507645 -1.32437866 27.73468414 -1.32244873 26.8997345 C-1.31575795 25.19784389 -1.30190304 23.49596789 -1.28125 21.79418945 C-1.24989096 19.17840421 -1.2402552 16.56322085 -1.234375 13.94726562 C-1.22521247 12.29165925 -1.21483911 10.63605904 -1.203125 8.98046875 C-1.19887512 8.19512253 -1.19462524 7.40977631 -1.19024658 6.60063171 C-1.11721138 1.11721138 -1.11721138 1.11721138 0 0 Z " fill="#43497D" transform="translate(73,263)"/>
<path d="M0 0 C5.58139535 1.36434109 5.58139535 1.36434109 7.6875 4.5625 C8.120625 5.366875 8.55375 6.17125 9 7 C9.99 7.33 10.98 7.66 12 8 C13.6484375 9.671875 13.6484375 9.671875 15.375 11.75 C18.12534216 14.99668841 20.94652216 18.03905179 24 21 C23.67 21.66 23.34 22.32 23 23 C22.28714844 22.26394531 21.57429688 21.52789062 20.83984375 20.76953125 C15.81500829 15.63221259 10.95953425 11.05248329 5 7 C2.0625 4.3125 2.0625 4.3125 0 2 C0 1.34 0 0.68 0 0 Z " fill="#FBE0D0" transform="translate(210,184)"/>
<path d="M0 0 C0.99 0.33 1.98 0.66 3 1 C0.60949904 2.48842513 -1.78674435 3.96578095 -4.1875 5.4375 C-4.86103516 5.85837891 -5.53457031 6.27925781 -6.22851562 6.71289062 C-9.79793012 8.88936288 -12.75570427 10.5467257 -17 11 C-17.33 11.99 -17.66 12.98 -18 14 C-20.31 14.33 -22.62 14.66 -25 15 C-23.33794434 11.67588869 -19.67684784 10.73260862 -16.4375 9.1875 C-11.86309859 6.97035952 -7.4212513 4.77061177 -3.1875 1.9375 C-2.135625 1.298125 -1.08375 0.65875 0 0 Z " fill="#F8DBC9" transform="translate(163,293)"/>
<path d="M0 0 C0.66 0.33 1.32 0.66 2 1 C-6.2095968 10.5344885 -6.2095968 10.5344885 -10 14 C-10.66 14 -11.32 14 -12 14 C-12 14.99 -12 15.98 -12 17 C-12.66 17 -13.32 17 -14 17 C-12.53172205 10.51510574 -12.53172205 10.51510574 -10 8.0625 C-8 7 -8 7 -6 7 C-5.67 6.01 -5.34 5.02 -5 4 C-3.37667033 2.61423077 -1.71275535 1.27358732 0 0 Z " fill="#484E86" transform="translate(100,22)"/>
<path d="M0 0 C4.82399971 4.47942831 9.61899524 10.18200023 10.15771484 16.99438477 C10.19638957 19.27041762 10.17459794 21.53671739 10.125 23.8125 C10.11597656 24.60076172 10.10695313 25.38902344 10.09765625 26.20117188 C10.07422504 28.13424666 10.03835838 30.0671638 10 32 C9.67 32 9.34 32 9 32 C8.98582031 31.02160156 8.97164063 30.04320312 8.95703125 29.03515625 C8.69139369 21.73371309 8.30294261 15.938579 4.05859375 9.734375 C3 8 3 8 3 5 C2.01 4.67 1.02 4.34 0 4 C0 2.68 0 1.36 0 0 Z " fill="#FAE0CE" transform="translate(251,226)"/>
<path d="M0 0 C1.51937934 3.03875868 0.62714457 5.34130324 -0.15234375 8.5625 C-2.75827982 16.05606732 -9.01265897 21.13718495 -15 26 C-15.66 25.67 -16.32 25.34 -17 25 C-16.40832031 24.5153125 -15.81664062 24.030625 -15.20703125 23.53125 C-7.07669983 16.63439463 -2.91064347 10.2227478 0 0 Z " fill="#F8D5C0" transform="translate(259,258)"/>
<path d="M0 0 C3.36048572 1.42857653 5.27725861 3.16054598 7.625 5.9375 C8.51058594 6.97197266 8.51058594 6.97197266 9.4140625 8.02734375 C11 10 11 10 13 13 C9.88801935 11.50163895 6.9465385 9.80066242 4 8 C3.67 8.66 3.34 9.32 3 10 C-0.00617269 6.99382731 0.40414684 4.17618402 0 0 Z " fill="#FBE0D1" transform="translate(99,293)"/>
<path d="M0 0 C1.33332095 2.6666419 0.67102033 4.16680303 0 7 C-0.99 7.33 -1.98 7.66 -3 8 C-2.9484375 8.69480469 -2.896875 9.38960937 -2.84375 10.10546875 C-3.03347219 13.62007238 -4.08685786 16.09760163 -5.5 19.3125 C-5.9640625 20.38113281 -6.428125 21.44976562 -6.90625 22.55078125 C-7.2671875 23.35902344 -7.628125 24.16726562 -8 25 C-10.22462144 18.32613568 -6.31573205 11.39590187 -3.375 5.4375 C-1.18649518 1.18649518 -1.18649518 1.18649518 0 0 Z " fill="#404881" transform="translate(85,39)"/>
<path d="M0 0 C9.59453303 3.85421412 9.59453303 3.85421412 13 8 C11.3125 8.6875 11.3125 8.6875 9 9 C5.36637602 7.27402861 2.63715784 5.0278479 0 2 C0 1.34 0 0.68 0 0 Z " fill="#EBCFC0" transform="translate(86,129)"/>
<path d="M0 0 C1.06863281 0.01804687 2.13726562 0.03609375 3.23828125 0.0546875 C4.04652344 0.07789063 4.85476562 0.10109375 5.6875 0.125 C6.0175 0.785 6.3475 1.445 6.6875 2.125 C5.67429688 2.25777344 4.66109375 2.39054687 3.6171875 2.52734375 C2.26561796 2.70567584 0.91405586 2.88406425 -0.4375 3.0625 C-1.10265625 3.14951172 -1.7678125 3.23652344 -2.453125 3.32617188 C-6.42080188 3.85130558 -10.36876998 4.44314014 -14.3125 5.125 C-10.31674314 0.49833416 -5.91004784 -0.12989116 0 0 Z " fill="#BBA09B" transform="translate(193.3125,337.875)"/>
<path d="M0 0 C2 1 2 1 3.11279297 3.1628418 C4.12264894 6.39221336 4.22735762 9.0137709 4.1953125 12.39453125 C4.18564453 14.19760742 4.18564453 14.19760742 4.17578125 16.03710938 C4.15902344 17.28298828 4.14226562 18.52886719 4.125 19.8125 C4.11597656 21.07771484 4.10695313 22.34292969 4.09765625 23.64648438 C4.07412394 26.76451564 4.04124545 29.88216097 4 33 C3.67 33 3.34 33 3 33 C2.98018066 32.39115967 2.96036133 31.78231934 2.93994141 31.1550293 C2.54996209 15.45492899 2.54996209 15.45492899 0 0 Z " fill="#AFAFD4" transform="translate(309,55)"/>
<path d="M0 0 C0.66 0 1.32 0 2 0 C2.391875 0.886875 2.78375 1.77375 3.1875 2.6875 C5.10207881 6.18655782 7.12459026 8.25833024 10 11 C12.04003481 13.29985056 14.02463446 15.64449538 16 18 C12.03471107 16.26083819 9.69560062 13.78255339 6.78125 10.65625 C5.07728431 8.89745682 5.07728431 8.89745682 2.828125 8.0078125 C2.22484375 7.67523438 1.6215625 7.34265625 1 7 C0.25 3.375 0.25 3.375 0 0 Z " fill="#F1D6CB" transform="translate(34,168)"/>
<path d="M0 0 C2.39652528 -0.08139142 4.79025436 -0.14067009 7.1875 -0.1875 C7.86103516 -0.21263672 8.53457031 -0.23777344 9.22851562 -0.26367188 C13.70049936 -0.32911554 16.48735997 0.18988798 20 3 C23.21410035 8.8925173 23.21410035 8.8925173 22.5703125 12.22265625 C22.38210938 12.80917969 22.19390625 13.39570312 22 14 C21.63648438 13.20335937 21.63648438 13.20335937 21.265625 12.390625 C20.93046875 11.68421875 20.5953125 10.9778125 20.25 10.25 C19.92515625 9.55390625 19.6003125 8.8578125 19.265625 8.140625 C17.72383118 5.53289965 16.41400524 3.85943647 14 2 C10.50727748 1.30220618 10.50727748 1.30220618 6.75 1.25 C4.85507813 1.16492187 4.85507813 1.16492187 2.921875 1.078125 C1.95765625 1.05234375 0.9934375 1.0265625 0 1 C0 0.67 0 0.34 0 0 Z " fill="#D2C6C5" transform="translate(243,33)"/>
<path d="M0 0 C-2.46622658 3.69933986 -3.58716122 3.67677354 -7.8125 4.625 C-8.85019531 4.86476563 -9.88789063 5.10453125 -10.95703125 5.3515625 C-13.63433588 5.92207928 -16.31369074 6.47366214 -19 7 C-15.63396829 4.17253336 -12.05267275 2.6510889 -8 1 C-5.29120665 -0.35439668 -2.99066732 -0.06501451 0 0 Z " fill="#CCB7B5" transform="translate(183,343)"/>
<path d="M0 0 C0.66 0.33 1.32 0.66 2 1 C0.23000902 2.93827536 -1.54095761 4.87564344 -3.3125 6.8125 C-3.81201172 7.35970703 -4.31152344 7.90691406 -4.82617188 8.47070312 C-7.16943128 11.03121837 -9.51144854 13.57939534 -12 16 C-12.33 15.34 -12.66 14.68 -13 14 C-8.83295817 9.14256071 -4.58155004 4.46980492 0 0 Z " fill="#41497E" transform="translate(212,21)"/>
<path d="M0 0 C1.75129657 1.10210905 3.50098464 2.20677432 5.25 3.3125 C6.22453125 3.92738281 7.1990625 4.54226563 8.203125 5.17578125 C10.54733713 6.70475759 12.78784032 8.28820977 15 10 C12.69 9.67 10.38 9.34 8 9 C8 8.34 8 7.68 8 7 C6.35 6.67 4.7 6.34 3 6 C3 5.34 3 4.68 3 4 C2.01 3.67 1.02 3.34 0 3 C0 2.01 0 1.02 0 0 Z " fill="#E7CAC1" transform="translate(95,336)"/>
<path d="M0 0 C0.66 0.33 1.32 0.66 2 1 C0.88200014 2.33920838 -0.24461897 3.67122556 -1.375 5 C-2.31472656 6.11375 -2.31472656 6.11375 -3.2734375 7.25 C-4.12808594 8.11625 -4.12808594 8.11625 -5 9 C-5.66 9 -6.32 9 -7 9 C-7.66 10.32 -8.32 11.64 -9 13 C-9.99 13 -10.98 13 -12 13 C-10.18777319 11.02058257 -8.37523172 9.04145495 -6.5625 7.0625 C-6.04623047 6.49853516 -5.52996094 5.93457031 -4.99804688 5.35351562 C-1.11328125 1.11328125 -1.11328125 1.11328125 0 0 Z " fill="#C4C8D3" transform="translate(156,195)"/>
<path d="M0 0 C0.66 0.33 1.32 0.66 2 1 C0.04761147 3.00612399 -1.91137822 5.00492433 -3.875 7 C-4.43058594 7.57234375 -4.98617187 8.1446875 -5.55859375 8.734375 C-7.00134404 10.19450782 -8.4974374 11.60149298 -10 13 C-10.66 13 -11.32 13 -12 13 C-10.44997253 9.11602311 -7.99523379 6.97020381 -4.875 4.25 C-3.96492187 3.45078125 -3.05484375 2.6515625 -2.1171875 1.828125 C-1.06917969 0.92320313 -1.06917969 0.92320313 0 0 Z " fill="#CBD0DA" transform="translate(231,38)"/>
<path d="M0 0 C-1.56119422 0.79423861 -3.12401964 1.58527123 -4.6875 2.375 C-5.55761719 2.81585938 -6.42773438 3.25671875 -7.32421875 3.7109375 C-14.36519608 7.10294118 -14.36519608 7.10294118 -17.3125 6.625 C-17.869375 6.41875 -18.42625 6.2125 -19 6 C-18.34 6 -17.68 6 -17 6 C-17 5.34 -17 4.68 -17 4 C-16.32453125 3.80664062 -15.6490625 3.61328125 -14.953125 3.4140625 C-13.61507813 3.02347656 -13.61507813 3.02347656 -12.25 2.625 C-11.36828125 2.36976563 -10.4865625 2.11453125 -9.578125 1.8515625 C-7.01192344 1.08881073 -7.01192344 1.08881073 -4.859375 -0.1640625 C-3 -1 -3 -1 0 0 Z " fill="#7776B9" transform="translate(342,231)"/>
<path d="M0 0 C-0.66 1.32 -1.32 2.64 -2 4 C-2.99 4 -3.98 4 -5 4 C-5 4.66 -5 5.32 -5 6 C-13.03571429 8.27678571 -13.03571429 8.27678571 -17 7 C-16.25234375 6.74605469 -15.5046875 6.49210937 -14.734375 6.23046875 C-13.74953125 5.88628906 -12.7646875 5.54210937 -11.75 5.1875 C-10.77546875 4.85105469 -9.8009375 4.51460938 -8.796875 4.16796875 C-5.71852614 2.88245715 -3.28554701 0 0 0 Z " fill="#6B639F" transform="translate(285,342)"/>
<path d="M0 0 C0.66 0 1.32 0 2 0 C2 0.99 2 1.98 2 3 C1.34 3 0.68 3 0 3 C-0.185625 4.3303125 -0.185625 4.3303125 -0.375 5.6875 C-0.95207876 8.74601742 -1.57873595 11.23643102 -3 14 C-3.99 14.33 -4.98 14.66 -6 15 C-5.71872579 13.51882199 -5.42466268 12.04006751 -5.125 10.5625 C-4.96257812 9.73878906 -4.80015625 8.91507813 -4.6328125 8.06640625 C-4.42398437 7.38449219 -4.21515625 6.70257813 -4 6 C-3.34 5.67 -2.68 5.34 -2 5 C-1.27840576 3.35636866 -0.60648579 1.68949614 0 0 Z " fill="#3F4285" transform="translate(374,186)"/>
<path d="M0 0 C5.61 1.98 11.22 3.96 17 6 C17 6.33 17 6.66 17 7 C11.86496656 6.35812082 7.0056546 5.31727753 2 4 C2 3.34 2 2.68 2 2 C1.34 2 0.68 2 0 2 C0 1.34 0 0.68 0 0 Z " fill="#E0C3BA" transform="translate(110,346)"/>
<path d="M0 0 C0.66 0.33 1.32 0.66 2 1 C-2.75522045 5.61935701 -6.40653991 8.76372623 -13 10 C-10.6902462 7.51142655 -8.21982599 5.7190403 -5.375 3.875 C-2.54227678 2.11973445 -2.54227678 2.11973445 0 0 Z " fill="#54559F" transform="translate(350,221)"/>
<path d="M0 0 C0.33 0 0.66 0 1 0 C1.03738281 0.74765625 1.07476562 1.4953125 1.11328125 2.265625 C1.17902344 3.25046875 1.24476563 4.2353125 1.3125 5.25 C1.37050781 6.22453125 1.42851562 7.1990625 1.48828125 8.203125 C2.04636524 11.25341611 2.96369776 12.70711276 5 15 C4.67 15.66 4.34 16.32 4 17 C3.01 17 2.02 17 1 17 C-0.18681726 13.43954823 -0.09689832 10.56191663 -0.0625 6.8125 C-0.05347656 5.54019531 -0.04445313 4.26789063 -0.03515625 2.95703125 C-0.02355469 1.98121094 -0.01195312 1.00539062 0 0 Z " fill="#E0C9C4" transform="translate(264,168)"/>
<path d="M0 0 C1 2 1 2 0.22265625 4.6015625 C-0.16019531 5.59929687 -0.54304687 6.59703125 -0.9375 7.625 C-1.50791016 9.12933594 -1.50791016 9.12933594 -2.08984375 10.6640625 C-2.39019531 11.43492187 -2.69054687 12.20578125 -3 13 C-3.66 12.67 -4.32 12.34 -5 12 C-4.67 9.69 -4.34 7.38 -4 5 C-3.01 4.67 -2.02 4.34 -1 4 C-0.26676204 1.98491642 -0.26676204 1.98491642 0 0 Z " fill="#A0A3CF" transform="translate(14,132)"/>
<path d="M0 0 C0.33 0 0.66 0 1 0 C1 3.96 1 7.92 1 12 C-4 10 -4 10 -6 7 C-4.35 7 -2.7 7 -1 7 C-0.67 4.69 -0.34 2.38 0 0 Z " fill="#F0DED5" transform="translate(222,126)"/>
<path d="M0 0 C3.93673644 1.31224548 6.22719294 2.91910327 9 6 C7.02 5.34 5.04 4.68 3 4 C3.33 5.32 3.66 6.64 4 8 C1.44971017 6.72485508 1.06918289 5.59658703 0 3 C0 2.01 0 1.02 0 0 Z " fill="#E4C9BF" transform="translate(153,37)"/>
<path d="M0 0 C1.53823599 3.07647197 0.56862875 5.53997601 -0.1875 8.80078125 C-1.3420023 11.92570814 -3.20129744 13.30604845 -6 15 C-4 10 -2 5 0 0 Z " fill="#FADFCB" transform="translate(259,258)"/>
<path d="M0 0 C5.52706913 0.72724594 10.69960141 2.33445973 16 4 C16 4.33 16 4.66 16 5 C10.01488629 4.65697965 5.24882694 4.17692157 0 1 C0 0.67 0 0.34 0 0 Z " fill="#AFABED" transform="translate(54,234)"/>
<path d="M0 0 C2.96404505 2.80804268 5.44499019 5.18315774 7 9 C5.02 8.34 3.04 7.68 1 7 C0.67 4.69 0.34 2.38 0 0 Z " fill="#CAAFAA" transform="translate(83,321)"/>
<path d="M0 0 C1.98 0.99 1.98 0.99 4 2 C3.67 4.31 3.34 6.62 3 9 C2.34 8.67 1.68 8.34 1 8 C0.40644386 5.35139573 0.25790731 2.70802678 0 0 Z " fill="#E5D0C8" transform="translate(99,293)"/>
<path d="M0 0 C-2.86299506 2.86299506 -4.65852284 2.99421225 -8.6875 3.0625 C-9.780625 3.041875 -10.87375 3.02125 -12 3 C-8.2391768 -0.7608232 -5.0273023 -0.25136512 0 0 Z " fill="#D9BFB8" transform="translate(272,350)"/>
<path d="M0 0 C0.66 0.33 1.32 0.66 2 1 C-3.14285714 7.57142857 -3.14285714 7.57142857 -7 9 C-5.44499019 5.18315774 -2.96404505 2.80804268 0 0 Z " fill="#B1B7C7" transform="translate(283,139)"/>
<path d="M0 0 C0.66 0.33 1.32 0.66 2 1 C1.01 1.33 0.02 1.66 -1 2 C-1.33 2.99 -1.66 3.98 -2 5 C-4.31 5.33 -6.62 5.66 -9 6 C-7.73295613 3.46591226 -6.56876843 3.06790028 -4.0625 1.8125 C-3.35222656 1.44769531 -2.64195312 1.08289063 -1.91015625 0.70703125 C-1.27980469 0.47371094 -0.64945313 0.24039062 0 0 Z " fill="#FAE3D2" transform="translate(147,302)"/>
<path d="M0 0 C0.66 0 1.32 0 2 0 C2 1.32 2 2.64 2 4 C2.99 4.33 3.98 4.66 5 5 C5 6.98 5 8.96 5 11 C2.56097476 8.56097476 1.40821408 6.13647681 0 3 C0 2.01 0 1.02 0 0 Z " fill="#6F6C8D" transform="translate(72,298)"/>
<path d="M0 0 C1.051875 0.433125 1.051875 0.433125 2.125 0.875 C5.05452503 2.02133588 8.00921653 3.02625654 11 4 C11 4.33 11 4.66 11 5 C9.741875 4.87625 8.48375 4.7525 7.1875 4.625 C6.12595703 4.52058594 6.12595703 4.52058594 5.04296875 4.4140625 C3 4 3 4 0 2 C0 1.34 0 0.68 0 0 Z " fill="#9B96DE" transform="translate(46,229)"/>
<path d="M0 0 C0.33 0 0.66 0 1 0 C1 1.98 1 3.96 1 6 C0.01 6.33 -0.98 6.66 -2 7 C-2 7.99 -2 8.98 -2 10 C-2.66 10 -3.32 10 -4 10 C-2.66666667 6.66666667 -1.33333333 3.33333333 0 0 Z " fill="#483F56" transform="translate(281,103)"/>
<path d="M0 0 C3.0916909 2.52956528 3.90931332 5.22454612 5 9 C4.34 9 3.68 9 3 9 C3 8.01 3 7.02 3 6 C2.34 6 1.68 6 1 6 C0.67 4.02 0.34 2.04 0 0 Z " fill="#9595CD" transform="translate(15,193)"/>
<path d="M0 0 C0.98726527 2.66561622 1.0275526 3.90126985 0.25 6.6875 C-1 9 -1 9 -4 10 C-2.8905928 6.51329166 -1.73662334 3.22515763 0 0 Z " fill="#433B4F" transform="translate(180,120)"/>
<path d="M0 0 C1.98 0.66 3.96 1.32 6 2 C6 2.99 6 3.98 6 5 C3.5625 4.1875 3.5625 4.1875 1 3 C0.67 2.01 0.34 1.02 0 0 Z " fill="#EFDAC9" transform="translate(210,184)"/>
</svg>
