<svg width="24" height="20" viewBox="0 0 24 20" fill="none" xmlns="http://www.w3.org/2000/svg">
<path d="M19.5611 12.625C19.2892 12.625 19.0221 12.5734 18.7689 12.475H18.7642C18.2064 12.25 17.7705 11.8046 17.5127 11.1859C17.1189 10.2484 17.1752 8.99683 17.6627 7.82964C18.3236 6.23589 19.6314 5.14839 20.9064 5.12964H20.9346C21.2064 5.12964 21.4783 5.1812 21.7314 5.27964H21.7361C22.2939 5.50464 22.7252 5.94995 22.9877 6.5687C23.3814 7.5062 23.3299 8.75776 22.8471 9.92495C22.1721 11.5421 20.8549 12.625 19.5658 12.625H19.5611ZM19.3221 11.0781C19.4017 11.1062 19.4814 11.125 19.5658 11.125C20.1283 11.125 20.9814 10.5015 21.4596 9.34839C21.7877 8.5562 21.8439 7.71245 21.6049 7.14995C21.5017 6.9062 21.3611 6.74683 21.1783 6.67183C21.0986 6.6437 21.0189 6.62495 20.9346 6.62495H20.9205C20.3627 6.63433 19.5189 7.26245 19.0455 8.40151C18.7174 9.1937 18.6564 10.0375 18.8955 10.6046C18.9986 10.8437 19.1392 11.0078 19.3221 11.0781Z" fill="#1E293B"/>
<path d="M17.2877 19.75C16.4533 19.75 15.5721 19.4594 14.6392 19.1547C13.7392 18.8594 12.8111 18.5594 12.0049 18.5594C11.1986 18.5594 10.2658 18.8641 9.36581 19.1547C8.42831 19.4594 7.54237 19.75 6.71268 19.75C5.10018 19.75 3.78768 18.3812 3.78768 16.6984C3.78299 16.2953 3.858 15.9016 4.00331 15.5266C4.37831 14.4906 5.25487 13.9656 6.10331 13.4547C6.84393 13.0094 7.54237 12.5922 7.99706 11.8375C9.25331 9.75625 10.0127 8.5 12.0002 8.5C13.9877 8.5 14.7424 9.75625 15.9986 11.8375C16.4533 12.5875 17.1471 13.0094 17.8877 13.45C18.7361 13.9609 19.608 14.4859 19.9877 15.5266C20.1377 15.9016 20.2127 16.2953 20.208 16.6984C20.208 18.3812 18.9002 19.75 17.2877 19.75ZM12.0049 17.0594C13.0502 17.0594 14.0908 17.4016 15.1033 17.7297C15.9236 17.9969 16.6924 18.25 17.2877 18.25C18.0705 18.25 18.708 17.5516 18.708 16.6937C18.708 16.4781 18.6705 16.2719 18.5908 16.0703L18.5814 16.0422C18.3986 15.5266 17.9017 15.2078 17.1142 14.7344C16.2939 14.2422 15.3611 13.6797 14.7142 12.6109C13.4158 10.4594 13.0408 10 12.0002 10C10.9596 10 10.5799 10.4594 9.28143 12.6156C8.63456 13.6891 7.70175 14.2469 6.87674 14.7438C6.16424 15.1703 5.60643 15.5078 5.40956 16.0469L5.40018 16.0703C5.32049 16.2672 5.28299 16.4781 5.28299 16.6891V16.6937C5.28299 17.5516 5.9205 18.25 6.708 18.25C7.30331 18.25 8.07675 17.9969 8.89706 17.7297C9.91425 17.4016 10.9596 17.0594 12.0049 17.0594Z" fill="#1E293B"/>
<path d="M9.02362 7.9375C8.29705 7.9375 7.58924 7.55312 7.02674 6.85469C6.52987 6.23125 6.18299 5.39219 6.05174 4.49219C5.74237 2.35 6.68455 0.498438 8.2033 0.273438C8.30174 0.259375 8.40018 0.25 8.5033 0.25C9.22987 0.25 9.93768 0.634375 10.4955 1.33281C10.9924 1.95625 11.3392 2.79531 11.4705 3.7C11.7799 5.84219 10.8377 7.69375 9.31893 7.91875C9.22518 7.92813 9.12205 7.9375 9.02362 7.9375ZM8.50799 1.75C8.48455 1.75 8.45643 1.75 8.43299 1.75469H8.4283C7.85174 1.83906 7.35018 2.93125 7.54237 4.27188C7.72987 5.56563 8.46112 6.43281 9.02362 6.43281C9.04705 6.43281 9.07518 6.43281 9.09862 6.42813H9.1033C9.67987 6.34375 10.1814 5.25156 9.98924 3.91094C9.80174 2.61719 9.07049 1.75 8.50799 1.75Z" fill="#1E293B"/>
<path d="M14.9768 7.9375C14.8784 7.9375 14.7799 7.92812 14.6815 7.91406C13.1627 7.69375 12.2159 5.84219 12.5299 3.69531C12.6612 2.79063 13.008 1.95156 13.5049 1.33281C14.058 0.634375 14.7659 0.25 15.4924 0.25C15.5909 0.25 15.694 0.259375 15.7924 0.273438C17.3065 0.49375 18.2534 2.34531 17.944 4.49219C17.8127 5.39219 17.4705 6.23125 16.9737 6.85469C16.4112 7.55312 15.7034 7.9375 14.9768 7.9375ZM15.4924 1.75C14.9299 1.75 14.1987 2.61719 14.0112 3.91094C13.819 5.25156 14.3205 6.34375 14.8971 6.42813H14.9018C14.9252 6.43281 14.9534 6.4375 14.9768 6.43281C15.544 6.43281 16.2705 5.56563 16.458 4.27188C16.6502 2.93125 16.1487 1.83906 15.5721 1.75469C15.544 1.75 15.5159 1.75 15.4924 1.75Z" fill="#1E293B"/>
<path d="M4.43926 12.625H4.43457C3.15019 12.625 1.83301 11.5375 1.16269 9.92495C0.675194 8.75776 0.623631 7.50151 1.01269 6.5687C1.27051 5.94995 1.70644 5.50464 2.26426 5.27964H2.26894C2.52676 5.1812 2.79394 5.12964 3.07051 5.12964C4.35488 5.12964 5.67207 6.21714 6.34238 7.82964C6.82988 8.99683 6.88144 10.2531 6.49238 11.1859C6.23457 11.8046 5.79863 12.25 5.24082 12.475H5.23613C4.97832 12.5734 4.71113 12.625 4.43926 12.625ZM2.81738 6.67183C2.63926 6.74683 2.49394 6.9062 2.39082 7.14995C2.15176 7.71714 2.21269 8.56089 2.54082 9.35308C3.02363 10.5015 3.87676 11.125 4.43457 11.125C4.52363 11.125 4.60332 11.1109 4.67832 11.0781C4.85644 11.0031 5.00176 10.8437 5.10488 10.6C5.34394 10.0328 5.28301 9.18901 4.95488 8.39683C4.47676 7.24839 3.62363 6.62495 3.06582 6.62495C2.97676 6.62495 2.89707 6.63901 2.81738 6.67183Z" fill="#1E293B"/>
</svg>
